<svg width="0" height="0">
  <symbol xmlns="http://www.w3.org/2000/svg" viewBox="0 0 28 17" id="vk">
    <path d="M27.8515 14.7508C27.8176 14.6761 27.786 14.6141 27.7566 14.5645C27.2708 13.6699 26.3425 12.5719 24.9722 11.2702L24.9432 11.2404L24.9287 11.2257L24.914 11.2108H24.8993C24.2774 10.6046 23.8836 10.197 23.7186 9.98835C23.4169 9.59085 23.3493 9.1885 23.5142 8.78082C23.6307 8.47281 24.0684 7.82232 24.8263 6.82848C25.2249 6.30177 25.5406 5.87963 25.7738 5.56159C27.4553 3.27601 28.1843 1.8155 27.9606 1.17947L27.8738 1.03084C27.8154 0.94136 27.6648 0.8595 27.4221 0.784846C27.1788 0.710348 26.8679 0.698027 26.4888 0.747675L22.2903 0.777328C22.2223 0.752687 22.1252 0.754984 21.9986 0.784846C21.8723 0.814707 21.809 0.829691 21.809 0.829691L21.736 0.867018L21.678 0.911863C21.6294 0.941516 21.5759 0.99367 21.5175 1.06822C21.4595 1.14251 21.4109 1.22969 21.3721 1.32904C20.915 2.5314 20.3953 3.64929 19.812 4.68265C19.4524 5.29884 19.1221 5.83285 18.8205 6.28501C18.5193 6.73701 18.2666 7.07003 18.0627 7.2835C17.8584 7.49718 17.6741 7.66837 17.5086 7.79768C17.3433 7.92705 17.2171 7.98171 17.1297 7.96171C17.0422 7.94172 16.9597 7.92188 16.8816 7.90204C16.7456 7.81256 16.6363 7.69087 16.5538 7.53686C16.471 7.38285 16.4152 7.18901 16.3861 6.95549C16.3571 6.72182 16.3399 6.52083 16.335 6.35184C16.3305 6.18305 16.3326 5.94431 16.3424 5.6363C16.3525 5.32813 16.3571 5.11962 16.3571 5.0103C16.3571 4.63264 16.3643 4.22277 16.3787 3.78058C16.3934 3.3384 16.4053 2.98804 16.4153 2.72994C16.4252 2.47157 16.4298 2.19822 16.4298 1.91004C16.4298 1.62187 16.4126 1.39586 16.3787 1.23183C16.3452 1.06801 16.2938 0.908992 16.226 0.754827C16.1579 0.600819 16.0581 0.481685 15.9272 0.397112C15.796 0.312642 15.6329 0.24561 15.4388 0.195805C14.9237 0.0766188 14.2677 0.0121444 13.4706 0.00212081C11.6629 -0.0177175 10.5014 0.101625 9.98634 0.359993C9.78224 0.469156 9.59756 0.618308 9.43242 0.806981C9.25744 1.02567 9.23303 1.14502 9.35935 1.16464C9.94258 1.25397 10.3555 1.46765 10.5985 1.80547L10.686 1.98449C10.7541 2.11365 10.8222 2.34231 10.8902 2.67016C10.9582 2.99802 11.0021 3.36069 11.0214 3.75798C11.0699 4.48349 11.0699 5.10453 11.0214 5.62116C10.9727 6.138 10.9267 6.54035 10.8829 6.82853C10.839 7.11671 10.7734 7.35022 10.686 7.52903C10.5985 7.70789 10.5402 7.81721 10.511 7.85688C10.4818 7.89656 10.4575 7.92157 10.4382 7.93138C10.3119 7.98087 10.1805 8.00609 10.0445 8.00609C9.90837 8.00609 9.74323 7.93644 9.54889 7.79726C9.35461 7.65808 9.15296 7.4669 8.94397 7.22341C8.73497 6.97987 8.49928 6.63954 8.23677 6.20237C7.97447 5.7652 7.70231 5.24851 7.42045 4.65232L7.18725 4.21995C7.04147 3.9418 6.84233 3.53678 6.58963 3.00527C6.33677 2.47355 6.11328 1.95922 5.91899 1.46238C5.84132 1.25371 5.72465 1.09485 5.56917 0.985526L5.4962 0.940681C5.44769 0.901004 5.36982 0.858874 5.263 0.813976C5.15603 0.769131 5.04441 0.736972 4.92768 0.717186L0.933199 0.74684C0.525014 0.74684 0.248056 0.841385 0.102225 1.03021L0.0438618 1.11954C0.0147057 1.16929 0 1.24875 0 1.35812C0 1.46744 0.0291561 1.60161 0.0875193 1.76047C0.670641 3.16168 1.30477 4.51303 1.98991 5.81474C2.67506 7.11644 3.27043 8.165 3.77569 8.95947C4.28104 9.75452 4.79615 10.5049 5.32101 11.2102C5.84587 11.9157 6.19329 12.3679 6.36327 12.5665C6.53346 12.7656 6.66714 12.9143 6.76431 13.0137L7.12884 13.3714C7.36209 13.6099 7.70461 13.8956 8.15655 14.2284C8.6086 14.5614 9.10905 14.8892 9.65817 15.2125C10.2074 15.5351 10.8463 15.7985 11.5753 16.0021C12.3042 16.206 13.0137 16.2878 13.7038 16.2483H15.3803C15.7203 16.2183 15.9779 16.109 16.153 15.9203L16.211 15.8456C16.25 15.7863 16.2866 15.6942 16.3203 15.5702C16.3544 15.446 16.3713 15.3091 16.3713 15.1603C16.3614 14.7331 16.3932 14.3481 16.4659 14.0053C16.5385 13.6626 16.6214 13.4042 16.714 13.2302C16.8066 13.0564 16.911 12.9097 17.0273 12.7908C17.1438 12.6716 17.2268 12.5994 17.2756 12.5745C17.324 12.5495 17.3626 12.5326 17.3918 12.5224C17.625 12.4429 17.8995 12.5199 18.2157 12.7536C18.5316 12.9871 18.8279 13.2754 19.1051 13.6181C19.3821 13.9611 19.7149 14.3459 20.1036 14.7731C20.4925 15.2005 20.8326 15.5182 21.1241 15.7271L21.4155 15.906C21.6102 16.0254 21.8629 16.1347 22.1739 16.234C22.4844 16.3333 22.7565 16.3582 22.9901 16.3085L26.722 16.249C27.0911 16.249 27.3784 16.1865 27.5821 16.0625C27.7862 15.9383 27.9075 15.8015 27.9466 15.6527C27.9856 15.5037 27.9877 15.3346 27.954 15.1456C27.9195 14.9571 27.8854 14.8253 27.8515 14.7508Z"></path>
  </symbol>
  <symbol xmlns="http://www.w3.org/2000/svg" viewBox="0 0 25 26" id="plus">
    <path d="M12.9509 12.3623H25V13.6623H12.9509V26H11.5731V13.6623H0V12.3623H11.5731V0H12.9509V12.3623Z"></path>
  </symbol>
  <symbol xmlns="http://www.w3.org/2000/svg" viewBox="0 0 16 15" id="star">
    <path d="M7.04894 0.92705C7.3483 0.00573921 8.6517 0.00573969 8.95106 0.92705L10.0206 4.21885C10.1545 4.63087 10.5385 4.90983 10.9717 4.90983H14.4329C15.4016 4.90983 15.8044 6.14945 15.0207 6.71885L12.2205 8.75329C11.87 9.00793 11.7234 9.4593 11.8572 9.87132L12.9268 13.1631C13.2261 14.0844 12.1717 14.8506 11.388 14.2812L8.58778 12.2467C8.2373 11.9921 7.7627 11.9921 7.41221 12.2467L4.61204 14.2812C3.82833 14.8506 2.77385 14.0844 3.0732 13.1631L4.14277 9.87132C4.27665 9.4593 4.12999 9.00793 3.7795 8.75329L0.979333 6.71885C0.195619 6.14945 0.598395 4.90983 1.56712 4.90983H5.02832C5.46154 4.90983 5.8455 4.63087 5.97937 4.21885L7.04894 0.92705Z"></path>
  </symbol>
  <symbol xmlns="http://www.w3.org/2000/svg" viewBox="0 0 20 20" id="trash">
		<path d="M18.5715 2.85715H13.5715V2.14285C13.5715 0.959387 12.6121 0 11.4287 0H8.57152C7.38805 0 6.42867 0.959387 6.42867 2.14285V2.85715H1.42865C1.03415 2.85715 0.714355 3.17695 0.714355 3.57145C0.714355 3.96595 1.03419 4.28571 1.42865 4.28571H2.20506L3.57151 19.3507C3.6052 19.7196 3.91537 20.0015 4.28581 20H15.7144C16.0848 20.0015 16.395 19.7196 16.4287 19.3507L17.7951 4.28571H18.5715C18.966 4.28571 19.2858 3.96591 19.2858 3.57141C19.2858 3.17691 18.966 2.85715 18.5715 2.85715ZM7.85722 2.14285C7.85722 1.74835 8.17702 1.42856 8.57152 1.42856H11.4287C11.8232 1.42856 12.143 1.74835 12.143 2.14285V2.85715H7.85726V2.14285H7.85722ZM15.0622 18.5714H4.93796L3.64295 4.28571H7.14296H16.3608L15.0622 18.5714Z" />
		<path d="M7.8573 16.381C7.85722 16.38 7.85717 16.379 7.85709 16.378L7.14279 6.37805C7.11479 5.98355 6.77227 5.68647 6.3778 5.71447C5.9833 5.74247 5.68623 6.085 5.71423 6.47946L6.42853 16.4794C6.45519 16.854 6.76733 17.144 7.14283 17.143H7.19427C7.58781 17.1157 7.88467 16.7745 7.8573 16.381Z" />
		<path d="M9.99994 5.71436C9.60544 5.71436 9.28564 6.03415 9.28564 6.42865V16.4286C9.28564 16.8231 9.60544 17.1429 9.99994 17.1429C10.3944 17.1429 10.7142 16.8231 10.7142 16.4286V6.42865C10.7142 6.03415 10.3944 5.71436 9.99994 5.71436Z" />
		<path d="M13.6219 5.71423C13.2274 5.68623 12.8849 5.9833 12.8569 6.3778L12.1426 16.3778C12.1137 16.7712 12.4091 17.1136 12.8026 17.1425C12.8038 17.1426 12.8049 17.1427 12.8062 17.1428H12.8569C13.2324 17.1437 13.5445 16.8537 13.5712 16.4792L14.2855 6.47921C14.3135 6.08475 14.0164 5.74227 13.6219 5.71423Z" />
  </symbol>
	<symbol xmlns="http://www.w3.org/2000/svg" viewBox="0 0 26 20" id="show" fill="none">
		<path fill-rule="evenodd" clip-rule="evenodd" d="M16.9518 10.0664C16.9518 12.2489 15.1818 14.0176 12.9993 14.0176C10.8168 14.0176 9.0481 12.2489 9.0481 10.0664C9.0481 7.88264 10.8168 6.11389 12.9993 6.11389C15.1818 6.11389 16.9518 7.88264 16.9518 10.0664Z" stroke="white" stroke-width="1.5" stroke-linecap="round" stroke-linejoin="round" />
		<path fill-rule="evenodd" clip-rule="evenodd" d="M12.9975 19.1936C17.7575 19.1936 22.1112 15.7711 24.5625 10.0661C22.1112 4.3611 17.7575 0.938599 12.9975 0.938599H13.0025C8.2425 0.938599 3.88875 4.3611 1.4375 10.0661C3.88875 15.7711 8.2425 19.1936 13.0025 19.1936H12.9975Z" stroke="white" stroke-width="1.5" stroke-linecap="round" stroke-linejoin="round" />
	</symbol>
  <symbol xmlns="http://www.w3.org/2000/svg" viewBox="0 0 15 12" id="check">
    <path d="M5.62462 11.1859C5.48438 11.3269 5.29313 11.4056 5.09438 11.4056C4.89563 11.4056 4.70438 11.3269 4.56413 11.1859L0.329625 6.95063C-0.109875 6.51113 -0.109875 5.79863 0.329625 5.35988L0.859875 4.82963C1.29938 4.39013 2.01112 4.39013 2.45062 4.82963L5.09438 7.47338L12.2381 0.329625C12.6776 -0.109875 13.3901 -0.109875 13.8289 0.329625L14.3591 0.859875C14.7986 1.29938 14.7986 2.01188 14.3591 2.45063L5.62462 11.1859Z"></path>
  </symbol>
  <symbol xmlns="http://www.w3.org/2000/svg" viewBox="0 0 20 19" id="cart">
    <path d="M20 6.57893H16.6038L13.0359 0.319309C12.8589 0.0083658 12.475 -0.093156 12.1784 0.0938088C11.8823 0.280773 11.7865 0.684867 11.9641 0.996475L15.1461 6.57893H4.85388L8.03587 0.996431C8.21348 0.684823 8.11767 0.280729 7.82164 0.0937645C7.52439 -0.0932003 7.14173 0.00832153 6.96411 0.319265L3.39617 6.57888H0V7.89468H1.35651L2.94432 16.8103C3.11033 17.7438 3.88547 18.421 4.78761 18.421H15.2124C16.1145 18.421 16.8896 17.7438 17.055 16.811L18.6434 7.89468H20C20 7.89468 20 6.57893 20 6.57893ZM15.8264 16.5688C15.7715 16.8797 15.5133 17.1053 15.2124 17.1053H4.78761C4.4867 17.1053 4.22854 16.8798 4.173 16.5681L2.62789 7.89468H17.3721L15.8264 16.5688Z"></path>
  </symbol>
	<symbol xmlns="http://www.w3.org/2000/svg" viewBox="0 0 24 24" id="close">
		<path d="M19.5382 3L12 10.5382L4.46179 3L3 4.46179L10.5382 12L3 19.5382L4.46179 21L12 13.4618L19.5382 21L21 19.5382L13.4618 12L21 4.46179L19.5382 3Z"></path>
	</symbol>
  <symbol xmlns="http://www.w3.org/2000/svg" viewBox="0 0 24 24" id="inst">
    <path fill-rule="evenodd" clip-rule="evenodd" d="M6 0H18C19.5913 0 21.1174 0.632141 22.2426 1.75736C23.3679 2.88258 24 4.4087 24 6V18C24 19.5913 23.3679 21.1174 22.2426 22.2426C21.1174 23.3679 19.5913 24 18 24H6C4.4087 24 2.88258 23.3679 1.75736 22.2426C0.632141 21.1174 0 19.5913 0 18V6C0 4.4087 0.632141 2.88258 1.75736 1.75736C2.88258 0.632141 4.4087 0 6 0ZM12 18.6667C13.7681 18.6667 15.4638 17.9643 16.714 16.714C17.9643 15.4638 18.6667 13.7681 18.6667 12C18.6667 10.2319 17.9643 8.5362 16.714 7.28595C15.4638 6.03571 13.7681 5.33333 12 5.33333C10.2319 5.33333 8.5362 6.03571 7.28595 7.28595C6.03571 8.5362 5.33333 10.2319 5.33333 12C5.33333 13.7681 6.03571 15.4638 7.28595 16.714C8.5362 17.9643 10.2319 18.6667 12 18.6667ZM12 16C10.9391 16 9.92172 15.5786 9.17157 14.8284C8.42143 14.0783 8 13.0609 8 12C8 10.9391 8.42143 9.92172 9.17157 9.17157C9.92172 8.42143 10.9391 8 12 8C13.0609 8 14.0783 8.42143 14.8284 9.17157C15.5786 9.92172 16 10.9391 16 12C16 13.0609 15.5786 14.0783 14.8284 14.8284C14.0783 15.5786 13.0609 16 12 16ZM18.6667 5.33333C19.0203 5.33333 19.3594 5.19286 19.6095 4.94281C19.8595 4.69276 20 4.35362 20 4C20 3.64638 19.8595 3.30724 19.6095 3.05719C19.3594 2.80714 19.0203 2.66667 18.6667 2.66667C18.313 2.66667 17.9739 2.80714 17.7239 3.05719C17.4738 3.30724 17.3333 3.64638 17.3333 4C17.3333 4.35362 17.4738 4.69276 17.7239 4.94281C17.9739 5.19286 18.313 5.33333 18.6667 5.33333Z"></path>
  </symbol>
  <symbol xmlns="http://www.w3.org/2000/svg" viewBox="0 0 24 20" id="tg">
    <path d="M1.4714 8.71005C1.4714 8.71005 12.086 4.31967 15.7673 2.77372C17.1786 2.15538 21.9643 0.176548 21.9643 0.176548C21.9643 0.176548 24.1732 -0.689117 23.9891 1.4133C23.9277 2.27905 23.4369 5.30901 22.9461 8.58638C22.2098 13.2242 21.4121 18.2948 21.4121 18.2948C21.4121 18.2948 21.2894 19.717 20.2464 19.9644C19.2033 20.2117 17.4853 19.0987 17.1786 18.8513C16.9331 18.6658 12.5768 15.8831 10.9816 14.5227C10.5521 14.1517 10.0613 13.4097 11.0429 12.544C13.2518 10.5033 15.8901 7.96805 17.4853 6.3603C18.2216 5.61822 18.9579 3.8868 15.8901 5.98921C11.5338 9.01926 7.23888 11.8638 7.23888 11.8638C7.23888 11.8638 6.25715 12.4821 4.41649 11.9255C2.57575 11.3691 0.428278 10.627 0.428278 10.627C0.428278 10.627 -1.04418 9.69946 1.4714 8.71005Z"></path>
  </symbol>
	<symbol xmlns="http://www.w3.org/2000/svg" viewBox="0 0 576 512" id="loader">
    <path d="M256 32C256 14.33 270.3 0 288 0C429.4 0 544 114.6 544 256C544 302.6 531.5 346.4 509.7 384C500.9 399.3 481.3 404.6 465.1 395.7C450.7 386.9 445.5 367.3 454.3 351.1C470.6 323.8 480 291 480 255.1C480 149.1 394 63.1 288 63.1C270.3 63.1 256 49.67 256 31.1V32z"></path>
  </symbol>
	<symbol xmlns="http://www.w3.org/2000/svg" viewBox="0 0 32 32" id="filter">
		<path d="M28,9H11a1,1,0,0,1,0-2H28a1,1,0,0,1,0,2Z"/>
		<path d="M7,9H4A1,1,0,0,1,4,7H7A1,1,0,0,1,7,9Z"/>
		<path d="M21,17H4a1,1,0,0,1,0-2H21a1,1,0,0,1,0,2Z"/>
		<path d="M11,25H4a1,1,0,0,1,0-2h7a1,1,0,0,1,0,2Z"/>
		<path d="M9,11a3,3,0,1,1,3-3A3,3,0,0,1,9,11ZM9,7a1,1,0,1,0,1,1A1,1,0,0,0,9,7Z"/>
		<path d="M23,19a3,3,0,1,1,3-3A3,3,0,0,1,23,19Zm0-4a1,1,0,1,0,1,1A1,1,0,0,0,23,15Z"/>
		<path d="M13,27a3,3,0,1,1,3-3A3,3,0,0,1,13,27Zm0-4a1,1,0,1,0,1,1A1,1,0,0,0,13,23Z"/>
		<path d="M28,17H25a1,1,0,0,1,0-2h3a1,1,0,0,1,0,2Z"/>
		<path d="M28,25H15a1,1,0,0,1,0-2H28a1,1,0,0,1,0,2Z"/>
	</symbol>
	<symbol xmlns="http://www.w3.org/2000/svg" viewBox="0 0 7 8" id="arrow-down">
		<path d="M6.92012 5.68997C6.81343 5.79687 6.64032 5.79704 6.53341 5.69037L3.69335 2.8562C3.58672 2.74959 3.41327 2.7496 3.30645 2.85641L0.466594 5.69037C0.359693 5.79705 0.18658 5.79687 0.0798849 5.68997C-0.0267831 5.58307 -0.0266053 5.40994 0.0802814 5.30328L2.91994 2.46951C3.07992 2.30956 3.28999 2.22961 3.50008 2.22961C3.71005 2.22961 3.92007 2.30953 4.07984 2.46932L6.91972 5.30328C7.02661 5.40994 7.02678 5.58307 6.92012 5.68997Z" />
	</symbol>
</svg>
