<?xml version="1.0" standalone="no"?>
<!DOCTYPE svg PUBLIC "-//W3C//DTD SVG 20010904//EN"
 "http://www.w3.org/TR/2001/REC-SVG-20010904/DTD/svg10.dtd">
<svg version="1.0" xmlns="http://www.w3.org/2000/svg"
 width="512.000000pt" height="512.000000pt" viewBox="0 0 512.000000 512.000000"
 preserveAspectRatio="xMidYMid meet">
<metadata>
Created by potrace 1.14, written by Peter Selinger 2001-2017
</metadata>
<g transform="translate(0.000000,512.000000) scale(0.100000,-0.100000)"
fill="#000000" stroke="none">
<path d="M2315 5109 c-798 -82 -1502 -519 -1927 -1196 -469 -746 -515 -1701
-120 -2491 452 -902 1382 -1456 2382 -1419 784 30 1492 401 1964 1031 256 342
423 757 488 1211 17 118 17 512 0 630 -58 404 -200 787 -410 1100 -411 613
-1033 1006 -1772 1120 -126 19 -477 28 -605 14z m-64 -1835 c72 -21 133 -57
196 -117 l53 -50 -66 -38 c-36 -22 -115 -77 -175 -124 -60 -47 -112 -85 -117
-85 -16 0 -324 318 -318 329 12 19 94 63 154 82 72 23 200 24 273 3z m348
-269 c22 -24 41 -48 41 -53 0 -4 -16 -24 -35 -42 -22 -22 -35 -42 -33 -55 5
-33 40 -29 78 10 18 19 39 35 44 35 6 -1 33 -21 61 -45 l49 -45 -38 -39 c-43
-44 -45 -74 -6 -79 18 -2 35 7 60 33 18 19 38 35 42 35 5 0 33 -16 63 -36 l55
-37 -46 -49 c-47 -50 -52 -73 -22 -92 15 -9 27 -1 76 47 l58 58 55 -24 c30
-14 63 -28 73 -31 17 -6 10 -17 -53 -80 -59 -59 -72 -78 -66 -95 13 -41 47
-25 140 70 l90 91 48 -5 c26 -2 50 -7 53 -10 3 -3 -2 -27 -11 -53 -33 -98 -37
-228 -12 -368 1 -8 -104 -12 -360 -14 -239 -1 -363 1 -363 8 0 5 36 72 80 148
44 76 80 145 80 154 0 8 -8 22 -17 30 -30 25 -181 108 -198 108 -18 0 -37 -29
-170 -263 l-100 -176 -107 -1 c-60 0 -108 2 -108 6 0 3 36 67 80 143 44 76 80
147 80 159 0 16 -18 31 -67 61 -110 64 -142 77 -160 65 -9 -6 -71 -105 -138
-220 l-121 -209 -99 0 -100 0 -3 30 c-5 55 -43 153 -81 212 -74 115 -207 204
-337 226 l-64 11 0 158 0 158 93 0 92 0 20 -37 c38 -71 134 -190 188 -231 143
-111 274 -119 462 -27 82 40 152 89 390 271 86 66 193 134 211 134 6 0 30 -20
53 -45z m1086 -461 c194 -39 308 -156 334 -345 4 -33 5 -61 3 -64 -3 -3 -133
-5 -288 -5 -326 0 -296 -11 -313 112 -15 106 7 258 45 319 7 13 115 4 219 -17z
m-2437 -34 c75 -35 168 -121 205 -189 32 -59 62 -170 50 -182 -5 -5 -98 -8
-209 -7 l-199 3 -3 209 -2 209 47 -7 c26 -3 76 -20 111 -36z m880 -44 c28 -16
52 -32 52 -35 0 -4 -38 -72 -84 -151 l-83 -145 -77 -3 c-48 -2 -76 1 -76 8 0
15 202 361 209 358 3 -2 30 -16 59 -32z m579 -30 c9 -8 -7 -45 -71 -156 l-83
-145 -77 -3 c-50 -2 -76 1 -76 8 0 6 45 90 101 186 l101 175 47 -27 c25 -15
51 -32 58 -38z m1318 -491 l0 -120 -1465 0 -1465 0 -3 109 c-1 61 0 116 2 123
4 11 265 13 1468 11 l1463 -3 0 -120z"/>
</g>
</svg>
